<?xml version="1.0" standalone="no"?><!DOCTYPE svg PUBLIC "-//W3C//DTD SVG 1.1//EN" "http://www.w3.org/Graphics/SVG/1.1/DTD/svg11.dtd"><svg t="1506775144819" class="icon" style="" viewBox="0 0 1024 1024" version="1.1" xmlns="http://www.w3.org/2000/svg" p-id="1727" xmlns:xlink="http://www.w3.org/1999/xlink" width="200" height="200"><defs><style type="text/css"></style></defs><path d="M655.812096 64.104889 211.551761 64.104889c-49.492105 0-57.422713 3.26434-57.422713 52.757469l-0.448207 790.278355c0 49.492105 7.93163 52.757469 57.423736 52.757469L817.55862 959.898181c49.493129 0 52.757469-2.241036 52.757469-51.735188L870.316089 274.514642 655.812096 64.104889zM691.157021 780.739113 332.839909 780.739113 332.839909 691.160091l358.318136 0L691.158045 780.739113zM691.157021 601.580046 332.839909 601.580046l0-89.579022 358.318136 0L691.158045 601.580046zM611.02412 319.304665 611.02412 131.289923 803.130032 319.304665 611.02412 319.304665z" p-id="1728" fill="#ffffff"></path></svg>