<?xml version="1.0" standalone="no"?><!DOCTYPE svg PUBLIC "-//W3C//DTD SVG 1.1//EN" "http://www.w3.org/Graphics/SVG/1.1/DTD/svg11.dtd"><svg t="1506149261794" class="icon" style="" viewBox="0 0 1024 1024" version="1.1" xmlns="http://www.w3.org/2000/svg" p-id="1017" xmlns:xlink="http://www.w3.org/1999/xlink" width="200" height="200"><defs><style type="text/css"></style></defs><path d="M916.711973 361.876887 105.269044 361.876887c-41.24845 0-43.345204 21.439288-41.015136 47.774073l30.29498 426.462858c2.097778 26.101471 8.156774 47.774073 49.171909 47.774073l736.870514 0c41.946344 0 46.841841-21.440311 49.172933-47.774073l28.196179-431.822936C960.059224 378.189412 957.960423 361.876887 916.711973 361.876887z" p-id="1018" fill="#1296db"></path><path d="M907.625014 248.38609c-1.165546-28.897144-10.486842-35.655058-35.190477-35.655058 0 0-282.909371 0-333.710384 0-50.805106 0-56.863079 0.699941-95.314833-40.548508-31.927153-34.489512-19.342534-34.023908-85.292572-34.023908-52.6665 0-175.47757 0-175.47757 0-40.550555 0-54.998615-3.495614-58.726519 38.685068-3.495614 38.917358-11.652388 133.298935-12.81691 147.746996l800.258193 0L907.625014 248.38609z" p-id="1019" fill="#1296db"></path></svg>